<svg id="rubics_logo-01" xmlns="http://www.w3.org/2000/svg" width="262.2" height="71.051" viewBox="0 0 262.2 71.051">
    <path id="Path_1" data-name="Path 1" d="M60.813,17.19,31.094,34.3,1.375,17.19,31.094,0ZM0,53.861l29.719,17.19v-34.3L0,19.558ZM32.546,36.748v34.3l29.719-17.19v-34.3Z" fill="#fff"/>
    <g id="Group_1" data-name="Group 1" transform="translate(113.223 22.079)">
      <path id="Path_2" data-name="Path 2" d="M148.2,44.574V29.6h7.563V44.421c0,3.9,1.91,5.73,4.966,5.73s4.966-1.757,4.966-5.5V29.6h7.563V44.421c0,8.633-4.966,12.453-12.529,12.453C153.013,56.8,148.2,52.978,148.2,44.574Z" transform="translate(-148.2 -29.065)" fill="#fff"/>
      <path id="Path_3" data-name="Path 3" d="M196.576,29.6h13.752c3.362,0,5.73.84,7.258,2.368a5.93,5.93,0,0,1,1.681,4.355V36.4a6.118,6.118,0,0,1-4.126,5.959c3.209,1.07,5.348,2.9,5.348,6.57v.076c0,4.584-3.744,7.411-10.161,7.411H196.5V29.6Zm11.842,10.619c2.292,0,3.514-.764,3.514-2.368v-.076c0-1.452-1.146-2.292-3.362-2.292h-4.813v4.737Zm1.07,10.161c2.292,0,3.591-.917,3.591-2.445v-.076c0-1.452-1.146-2.445-3.667-2.445h-5.654V50.38Z" transform="translate(-159.599 -29.065)" fill="#fff"/>
      <path id="Path_4" data-name="Path 4" d="M242.5,29.6h7.487V56.34H242.5Z" transform="translate(-170.456 -29.065)" fill="#fff"/>
      <path id="Path_5" data-name="Path 5" d="M267.5,42.881V42.8a13.769,13.769,0,0,1,14.134-13.9c5.5,0,9.015,2.292,11.383,5.577l-5.577,4.355a7.175,7.175,0,0,0-5.883-3.132c-3.744,0-6.417,3.209-6.417,7.105v.076c0,3.973,2.674,7.181,6.417,7.181,2.827,0,4.431-1.3,6.035-3.285l5.577,3.973a14.1,14.1,0,0,1-25.67-7.869Z" transform="translate(-176.356 -28.9)" fill="#fff"/>
      <path id="Path_6" data-name="Path 6" d="M312.5,52.2l4.126-4.966a13.658,13.658,0,0,0,8.709,3.209c1.986,0,3.056-.688,3.056-1.834v-.076c0-1.146-.917-1.681-4.508-2.6-5.73-1.3-10.085-2.9-10.085-8.4v-.076c0-4.966,3.9-8.557,10.39-8.557a16.571,16.571,0,0,1,11,3.591l-3.744,5.272a13.775,13.775,0,0,0-7.487-2.674c-1.834,0-2.674.764-2.674,1.681v.076c0,1.222.917,1.757,4.66,2.6,6.188,1.375,10.008,3.362,10.008,8.327v.076c0,5.5-4.355,8.709-10.849,8.709A18.494,18.494,0,0,1,312.5,52.2Z" transform="translate(-186.977 -28.9)" fill="#fff"/>
    </g>
    <path id="Path_7" data-name="Path 7" d="M102.7,29.6h12.682c4.126,0,6.952,1.07,8.709,2.9a8.468,8.468,0,0,1,2.368,6.265v.076a8.558,8.558,0,0,1-5.5,8.251l6.417,9.321H118.82L113.4,48.241h-3.285v8.1H102.7V29.6ZM115,42.435c2.521,0,3.973-1.222,3.973-3.209V39.15c0-2.139-1.528-3.209-3.973-3.209h-4.89v6.417H115Z" transform="translate(-24.239 -6.986)" fill="#fff"/>
  </svg>
  