<svg id="icon_graphic" xmlns="http://www.w3.org/2000/svg" xmlns:xlink="http://www.w3.org/1999/xlink" width="71.1" height="70.7" viewBox="0 0 71.1 70.7">
    <defs>
      <linearGradient id="linear-gradient" x1="-0.199" y1="0.065" x2="0.909" y2="1.18" gradientUnits="objectBoundingBox">
        <stop offset="0" stop-color="#fff"/>
        <stop offset="0.01" stop-color="#bdcee7"/>
        <stop offset="0.51" stop-color="#525ceb"/>
        <stop offset="1" stop-color="#11009e"/>
      </linearGradient>
      <linearGradient id="linear-gradient-2" x1="-2.434" y1="-1.405" x2="3.582" y2="2.497" xlink:href="#linear-gradient"/>
      <linearGradient id="linear-gradient-3" x1="-3.022" y1="-1.786" x2="2.995" y2="2.115" xlink:href="#linear-gradient"/>
      <linearGradient id="linear-gradient-4" x1="-3.609" y1="-2.167" x2="2.407" y2="1.734" xlink:href="#linear-gradient"/>
      <linearGradient id="linear-gradient-5" x1="-5.194" y1="-2.519" x2="2.172" y2="1.382" xlink:href="#linear-gradient"/>
      <linearGradient id="linear-gradient-6" x1="-24.913" y1="-24.907" x2="7.926" y2="7.932" xlink:href="#linear-gradient"/>
      <linearGradient id="linear-gradient-7" x1="-25.9" y1="-25.878" x2="6.939" y2="6.961" xlink:href="#linear-gradient"/>
      <linearGradient id="linear-gradient-8" x1="-26.887" y1="-26.891" x2="5.952" y2="5.948" xlink:href="#linear-gradient"/>
    </defs>
    <path id="Path_16" data-name="Path 16" d="M69.9,41.2h-.2l.7-1.4-1-.5,1.2-1.4L26.6.3a1.613,1.613,0,0,0-.9-.3,1.234,1.234,0,0,0-.8.4l-10.1,12-.2-.1a1.258,1.258,0,0,0-1.6.5L1,37.2a1.412,1.412,0,0,0-.1.9,1.344,1.344,0,0,0,.6.7l4.7,2.3h-5A1.155,1.155,0,0,0,0,42.3V69.5a1.155,1.155,0,0,0,1.2,1.2h64a5.911,5.911,0,0,0,5.9-5.9V42.4A1.216,1.216,0,0,0,69.9,41.2ZM25.9,2.9,67.5,38.5l-22.1-11,1.8-2.1a1.4,1.4,0,0,0,.3-.9,1.234,1.234,0,0,0-.4-.8L39,16.8a1.244,1.244,0,0,0-1.7.1l-3.9,4.6-2.2-1.1,4.2-5a1.244,1.244,0,0,0-.1-1.7L27.1,7a1.4,1.4,0,0,0-.9-.3,1.234,1.234,0,0,0-.8.4l-6.3,7.5-2.2-1.1ZM44.6,24.8l-1.4,1.7-7.7-3.8,2.7-3.2ZM29,19.5l-7.7-3.8,5.2-6.1,6.3,5.3ZM3.6,37.3,14.6,15,67.9,41.3H62.5l-4.3-2.1a1.258,1.258,0,0,0-1.6.5l-.8,1.6H53.2l1.3-2.6a1.412,1.412,0,0,0,.1-.9,1.344,1.344,0,0,0-.6-.7l-9.6-4.7a1.412,1.412,0,0,0-.9-.1,1.344,1.344,0,0,0-.7.6l-4.1,8.4H36l4.7-9.5a1.412,1.412,0,0,0,.1-.9,1.344,1.344,0,0,0-.6-.7l-9.6-4.7a1.412,1.412,0,0,0-.9-.1,1.344,1.344,0,0,0-.7.6L21.5,41.2H18.8c.1-.1.2-.2.2-.3L26.8,25a1.258,1.258,0,0,0-.5-1.6l-9.6-4.7a1.412,1.412,0,0,0-.9-.1,1.344,1.344,0,0,0-.7.6l-7.8,16a1.258,1.258,0,0,0,.5,1.6l9.1,4.5H11.5Zm48.2,1.3-1.3,2.6H41.3l3.1-6.3ZM33.3,41.2H24.1l6.5-13.1L38,31.8Zm-16-2.4L9.9,35.1l6.8-13.8L24.1,25ZM68.7,64.9a3.585,3.585,0,0,1-3.6,3.6H2.4V43.6H68.8V64.9Z" transform="translate(0)" fill="url(#linear-gradient)"/>
    <path id="Path_17" data-name="Path 17" d="M16.6,46H5.9a1.155,1.155,0,0,0-1.2,1.2V65a1.155,1.155,0,0,0,1.2,1.2H16.6A1.155,1.155,0,0,0,17.8,65V47.2A1.216,1.216,0,0,0,16.6,46ZM15.4,63.8H7.1V48.4h8.3Z" transform="translate(0)" fill="url(#linear-gradient-2)"/>
    <path id="Path_18" data-name="Path 18" d="M32,46H21.3a1.155,1.155,0,0,0-1.2,1.2V65a1.155,1.155,0,0,0,1.2,1.2H32A1.155,1.155,0,0,0,33.2,65V47.2A1.216,1.216,0,0,0,32,46ZM30.8,63.8H22.5V48.4h8.3Z" transform="translate(0)" fill="url(#linear-gradient-3)"/>
    <path id="Path_19" data-name="Path 19" d="M47.4,46H36.7a1.155,1.155,0,0,0-1.2,1.2V65a1.155,1.155,0,0,0,1.2,1.2H47.4A1.155,1.155,0,0,0,48.6,65V47.2A1.216,1.216,0,0,0,47.4,46ZM46.2,63.8H37.9V48.4h8.3Z" transform="translate(0)" fill="url(#linear-gradient-4)"/>
    <path id="Path_20" data-name="Path 20" d="M60.4,46H52.1a1.155,1.155,0,0,0-1.2,1.2V65a1.155,1.155,0,0,0,1.2,1.2h8.3A1.155,1.155,0,0,0,61.6,65V47.2A1.155,1.155,0,0,0,60.4,46ZM59.2,63.8H53.3V48.4h5.9Z" transform="translate(0)" fill="url(#linear-gradient-5)"/>
    <rect id="Rectangle_3" data-name="Rectangle 3" width="2.4" height="2.4" transform="translate(64 46)" fill="url(#linear-gradient-6)"/>
    <rect id="Rectangle_4" data-name="Rectangle 4" width="2.4" height="2.4" transform="translate(64 50.7)" fill="url(#linear-gradient-7)"/>
    <rect id="Rectangle_5" data-name="Rectangle 5" width="2.4" height="2.4" transform="translate(64 55.5)" fill="url(#linear-gradient-8)"/>
  </svg>
  