<svg id="icon_camera" xmlns="http://www.w3.org/2000/svg" xmlns:xlink="http://www.w3.org/1999/xlink" width="84.4" height="70.803" viewBox="0 0 84.4 70.803">
    <defs>
      <linearGradient id="linear-gradient" x1="-12.535" y1="-11.792" x2="11.488" y2="10.896" gradientUnits="objectBoundingBox">
        <stop offset="0" stop-color="#fff"/>
        <stop offset="0.01" stop-color="#bdcee7"/>
        <stop offset="0.51" stop-color="#525ceb"/>
        <stop offset="1" stop-color="#11009e"/>
      </linearGradient>
      <linearGradient id="linear-gradient-2" x1="-0.355" y1="-0.358" x2="1.383" y2="1.384" xlink:href="#linear-gradient"/>
      <linearGradient id="linear-gradient-3" x1="-1.203" y1="-1.178" x2="2.258" y2="2.225" xlink:href="#linear-gradient"/>
      <linearGradient id="linear-gradient-4" x1="-4.215" y1="-4.109" x2="4.474" y2="4.399" xlink:href="#linear-gradient"/>
      <linearGradient id="linear-gradient-5" x1="0.024" y1="-0.029" x2="0.991" y2="1.124" xlink:href="#linear-gradient"/>
      <linearGradient id="linear-gradient-6" x1="-5.1" y1="-3.254" x2="2.064" y2="1.55" xlink:href="#linear-gradient"/>
    </defs>
    <path id="Path_9" data-name="Path 9" d="M71.6,18.8A1.8,1.8,0,1,0,69.9,17,1.655,1.655,0,0,0,71.6,18.8Z" transform="translate(0 -0.097)" fill="url(#linear-gradient)"/>
    <path id="Path_10" data-name="Path 10" d="M42.2,61.7A23.45,23.45,0,1,0,18.7,38.2,23.473,23.473,0,0,0,42.2,61.7Zm0-44A20.5,20.5,0,1,1,21.7,38.2,20.528,20.528,0,0,1,42.2,17.7Z" transform="translate(0 -0.097)" fill="url(#linear-gradient-2)"/>
    <path id="Path_11" data-name="Path 11" d="M42.2,50.3a12,12,0,0,0,0-24,1.5,1.5,0,0,0,0,3h0a9,9,0,1,1-8.8,9,1.5,1.5,0,0,0-3,0h0A12,12,0,0,0,42.2,50.3Z" transform="translate(0 -0.097)" fill="url(#linear-gradient-3)"/>
    <path id="Path_12" data-name="Path 12" d="M71.6,21.8A4.8,4.8,0,1,0,66.9,17,4.781,4.781,0,0,0,71.6,21.8Zm0-6.5a1.8,1.8,0,1,1-1.7,1.8A1.655,1.655,0,0,1,71.6,15.3Z" transform="translate(0 -0.097)" fill="url(#linear-gradient-4)"/>
    <path id="Path_13" data-name="Path 13" d="M76.1,70.9a8.388,8.388,0,0,0,8.3-8.5V14.1a8.519,8.519,0,0,0-8.3-8.5H23.9A5.484,5.484,0,0,0,18.4.1h-7A5.339,5.339,0,0,0,6,5.6V6a8.4,8.4,0,0,0-6,8.1V62.4a8.452,8.452,0,0,0,8.3,8.5ZM8.9,5.6A2.562,2.562,0,0,1,11.4,3h7a2.5,2.5,0,0,1,2.5,2.6v.1l-12-.1ZM3,62.4V14.1A5.489,5.489,0,0,1,7.5,8.7a.6.6,0,0,0,.4-.1H76.2a5.464,5.464,0,0,1,5.4,5.5V62.4a5.463,5.463,0,0,1-5.4,5.5H8.3A5.381,5.381,0,0,1,3,62.4Z" transform="translate(0 -0.097)" fill="url(#linear-gradient-5)"/>
    <path id="Path_14" data-name="Path 14" d="M67.7,64.3h5.2a11.483,11.483,0,0,0,1.9-.1,3.426,3.426,0,0,0,1.8-.9c1-1,1-2.3,1-3.8V48.8a1.473,1.473,0,0,0-1.5-1.5h0a1.538,1.538,0,0,0-1.5,1.5V59.4a5.112,5.112,0,0,1-.2,1.7h-.2c-.3,0-.7.1-1.4.1H67.7a1.473,1.473,0,0,0-1.5,1.5A1.631,1.631,0,0,0,67.7,64.3Z" transform="translate(0 -0.097)" fill="url(#linear-gradient-6)"/>
  </svg>
  