<svg id="icon_code" xmlns="http://www.w3.org/2000/svg" xmlns:xlink="http://www.w3.org/1999/xlink" width="110.45" height="56.759" viewBox="0 0 110.45 56.759">
  <defs>
    <linearGradient id="linear-gradient" y1="0.5" x2="1" y2="0.5" gradientUnits="objectBoundingBox">
      <stop offset="0" stop-color="#fff"/>
      <stop offset="0.01" stop-color="#bdcee7"/>
      <stop offset="0.51" stop-color="#525ceb"/>
      <stop offset="1" stop-color="#11009e"/>
    </linearGradient>
  </defs>
  <path id="Path_15" data-name="Path 15" d="M64.1,952.3a1.441,1.441,0,0,0-1.1.9l-18,54a1.29,1.29,0,1,0,2.4.9l18-54a1.346,1.346,0,0,0-1.3-1.8Zm-32.7,2.8L.5,977a1.312,1.312,0,0,0,0,2.1l30.8,21.8a1.29,1.29,0,1,0,1.5-2.1L3.5,978l29.4-20.8a1.282,1.282,0,0,0,.5-1.5,1.541,1.541,0,0,0-1.3-.9A2.391,2.391,0,0,0,31.4,955.1Zm46.2,2.1L107,978,77.6,998.8a1.28,1.28,0,0,0-.3,1.8,1.294,1.294,0,0,0,1.8.3l30.8-21.8a1.312,1.312,0,0,0,0-2.1L79.1,955.2a.778.778,0,0,0-.8-.2A1.207,1.207,0,0,0,77.6,957.2Z" transform="translate(0.025 -952.293)" fill="url(#linear-gradient)"/>
</svg>
