<svg id="icon_video" xmlns="http://www.w3.org/2000/svg" xmlns:xlink="http://www.w3.org/1999/xlink" width="70.9" height="70.8" viewBox="0 0 70.9 70.8">
    <defs>
      <linearGradient id="linear-gradient" x1="-0.005" y1="-0.099" x2="1.142" y2="1.261" gradientUnits="objectBoundingBox">
        <stop offset="0" stop-color="#fff"/>
        <stop offset="0.01" stop-color="#bdcee7"/>
        <stop offset="0.51" stop-color="#525ceb"/>
        <stop offset="1" stop-color="#11009e"/>
      </linearGradient>
      <linearGradient id="linear-gradient-2" x1="-1.194" y1="-0.455" x2="2.277" y2="1.896" xlink:href="#linear-gradient"/>
      <linearGradient id="linear-gradient-3" x1="-0.271" y1="-4.072" x2="0.874" y2="2.727" xlink:href="#linear-gradient"/>
    </defs>
    <path id="Path_21" data-name="Path 21" d="M66.9,0H3.9A3.971,3.971,0,0,0,0,3.9V51.1A3.9,3.9,0,0,0,3.9,55h63a3.9,3.9,0,0,0,3.9-3.9V3.9A3.842,3.842,0,0,0,66.9,0Zm1.3,51.2a1.324,1.324,0,0,1-1.3,1.3H3.9a1.324,1.324,0,0,1-1.3-1.3V3.9A1.324,1.324,0,0,1,3.9,2.6h63a1.324,1.324,0,0,1,1.3,1.3Z" fill="url(#linear-gradient)"/>
    <path id="Path_22" data-name="Path 22" d="M47.1,24.4l-15.6-12a3.926,3.926,0,0,0-6.3,3.1v24A3.735,3.735,0,0,0,27.4,43a3.533,3.533,0,0,0,1.7.4,4.31,4.31,0,0,0,2.4-.8l15.6-12a3.88,3.88,0,0,0,1.5-3.1,4.2,4.2,0,0,0-1.5-3.1Zm-1.6,4.2-15.6,12a1.2,1.2,0,0,1-1.4.1,1.213,1.213,0,0,1-.7-1.2v-24a1.387,1.387,0,0,1,.7-1.2,1.268,1.268,0,0,1,.6-.1,1.135,1.135,0,0,1,.8.3l15.6,12a1.231,1.231,0,0,1,.5,1,1.433,1.433,0,0,1-.5,1.1Z" fill="url(#linear-gradient-2)"/>
    <path id="Path_23" data-name="Path 23" d="M69.6,64H59.4a5.571,5.571,0,0,0-10.8,0H1.3a1.3,1.3,0,0,0,0,2.6H48.7a5.571,5.571,0,0,0,10.8,0H69.6a1.3,1.3,0,1,0,0-2.6ZM54.1,68.2A2.9,2.9,0,1,1,57,65.3,2.9,2.9,0,0,1,54.1,68.2Z" fill="url(#linear-gradient-3)"/>
  </svg>
  